<?xml version="1.0" standalone="no"?>
<!DOCTYPE svg PUBLIC "-//W3C//DTD SVG 20010904//EN"
 "http://www.w3.org/TR/2001/REC-SVG-20010904/DTD/svg10.dtd">
<svg version="1.0" xmlns="http://www.w3.org/2000/svg"
 width="2279.000000pt" height="2279.000000pt" viewBox="0 0 2279.000000 2279.000000"
 preserveAspectRatio="xMidYMid meet">
<metadata>
Created by potrace 1.14, written by Peter Selinger 2001-2017
</metadata>
<g transform="translate(0.000000,2279.000000) scale(0.100000,-0.100000)"
fill="#000000" stroke="none">
<path d="M10401 22769 c6 -12 43 -74 81 -138 88 -145 270 -460 328 -566 92
-169 112 -208 243 -470 167 -333 222 -452 219 -467 -1 -5 2 -8 8 -8 5 0 10 -5
10 -11 0 -6 14 -40 30 -76 17 -35 30 -67 30 -71 0 -7 35 -85 55 -122 7 -14 13
-29 14 -35 0 -12 28 -79 46 -115 7 -14 13 -27 13 -30 1 -3 5 -16 10 -30 114
-301 218 -603 286 -830 27 -90 109 -394 120 -445 4 -16 11 -46 15 -65 7 -29
24 -104 47 -205 2 -11 7 -36 10 -55 3 -19 7 -42 10 -50 6 -15 8 -27 18 -90 3
-19 10 -51 14 -70 5 -20 8 -50 8 -68 -1 -18 2 -32 5 -32 3 0 9 -24 13 -52 4
-29 9 -64 11 -78 3 -14 7 -47 10 -75 2 -27 7 -61 9 -75 5 -23 14 -90 22 -165
2 -16 6 -61 9 -99 3 -38 7 -85 10 -105 27 -241 27 -1020 0 -1238 -2 -15 -7
-59 -10 -98 -4 -38 -8 -86 -10 -105 -4 -35 -14 -118 -20 -155 -5 -32 -15 -102
-20 -142 -2 -21 -11 -74 -19 -118 -9 -44 -18 -96 -21 -115 -3 -19 -15 -73 -25
-120 -10 -47 -21 -96 -24 -110 -2 -14 -9 -45 -15 -70 -7 -25 -14 -56 -17 -70
-6 -31 -23 -96 -34 -135 -5 -16 -16 -57 -25 -90 -42 -153 -159 -516 -192 -595
-3 -8 -7 -17 -8 -20 -1 -3 -7 -18 -13 -33 -7 -15 -15 -39 -18 -52 -3 -14 -9
-25 -13 -25 -4 0 -7 -8 -8 -17 -2 -19 -63 -170 -114 -281 -16 -35 -29 -65 -29
-67 0 -2 -26 -57 -57 -122 -31 -65 -58 -120 -58 -123 -1 -3 -15 -33 -33 -67
-18 -35 -31 -64 -30 -65 2 -2 -7 -17 -20 -35 -12 -17 -22 -34 -22 -37 0 -12
-163 -301 -174 -308 -6 -4 -8 -8 -3 -8 4 0 -15 -36 -43 -81 -27 -44 -50 -82
-50 -84 0 -2 -13 -24 -30 -48 -16 -25 -30 -48 -30 -51 0 -4 -4 -12 -10 -19 -5
-7 -78 -115 -162 -242 -219 -330 -588 -817 -773 -1019 -6 -6 -35 -40 -65 -75
-30 -36 -62 -72 -70 -81 -8 -9 -49 -54 -90 -100 -114 -127 -245 -266 -428
-453 l-47 -48 40 16 c22 10 68 30 103 46 35 16 65 29 68 29 2 0 43 19 91 41
49 23 115 54 148 69 78 36 285 139 355 177 30 16 94 51 141 76 160 86 492 285
497 299 2 4 8 8 13 8 12 0 259 168 379 256 47 35 94 70 105 78 40 30 115 89
170 134 77 63 201 167 205 172 3 3 48 43 100 90 100 90 312 300 395 392 111
122 179 200 194 220 8 12 22 29 30 38 24 25 53 60 86 105 16 22 33 42 36 45 4
3 45 59 93 125 47 66 90 125 96 132 38 46 221 340 307 493 76 136 273 536 273
556 0 2 10 26 21 52 12 26 27 61 35 78 44 102 199 551 210 613 3 14 7 28 10
33 4 6 37 127 50 181 2 9 6 25 8 35 34 138 56 232 60 252 2 14 9 46 15 73 6
26 14 64 17 83 3 20 8 46 10 58 3 11 7 32 9 46 4 29 13 84 20 120 2 14 7 41 9
60 3 19 7 44 10 55 3 17 10 75 22 175 1 14 5 43 8 65 3 22 8 72 11 110 3 39 8
81 10 95 7 49 18 227 19 312 1 49 4 88 7 88 4 0 6 197 4 438 -2 397 -6 550
-20 726 -13 160 -16 203 -20 231 -3 17 -7 68 -10 115 -3 47 -8 96 -10 110 -8
49 -18 145 -17 163 0 9 -2 17 -6 17 -4 0 -7 15 -6 32 0 18 -5 71 -11 118 -7
47 -16 104 -19 128 -3 23 -9 60 -12 82 -3 22 -4 40 -1 40 2 0 64 -21 138 -46
239 -83 742 -255 829 -284 47 -16 211 -72 365 -125 154 -53 318 -110 365 -125
47 -16 225 -77 395 -135 274 -94 675 -231 745 -255 14 -5 158 -54 320 -110
162 -56 333 -114 380 -130 47 -16 218 -74 380 -130 162 -56 374 -128 470 -161
96 -33 213 -73 260 -90 47 -16 92 -31 100 -33 8 -3 74 -25 145 -50 242 -83
780 -268 805 -276 14 -4 185 -63 380 -130 195 -67 430 -147 522 -178 91 -31
165 -59 163 -62 -2 -3 0 -24 5 -46 5 -21 11 -59 15 -84 3 -25 8 -52 10 -60 2
-8 6 -33 9 -55 3 -22 8 -60 12 -85 4 -25 8 -58 10 -75 2 -16 5 -43 8 -60 2
-16 7 -57 10 -90 4 -32 9 -62 11 -65 2 -3 0 -12 -5 -20 -5 -8 -5 -19 0 -25 4
-5 11 -50 15 -100 4 -49 8 -106 10 -125 23 -246 23 -828 0 -1095 -17 -199 -21
-232 -29 -295 -3 -25 -8 -67 -11 -95 -3 -27 -8 -61 -10 -75 -3 -14 -7 -43 -10
-65 -3 -22 -7 -51 -10 -65 -2 -14 -13 -77 -25 -140 -11 -63 -23 -126 -26 -140
-3 -14 -10 -43 -14 -65 -17 -81 -21 -100 -26 -117 -3 -9 -7 -26 -9 -37 -3 -12
-7 -30 -10 -41 -3 -11 -7 -29 -9 -40 -3 -11 -17 -64 -32 -117 -14 -54 -27
-102 -29 -108 -1 -5 -4 -17 -7 -25 -3 -8 -32 -96 -63 -195 -59 -185 -97 -291
-135 -380 -7 -16 -15 -39 -17 -49 -2 -10 -12 -35 -22 -55 -11 -20 -36 -76 -56
-126 -45 -110 -213 -454 -268 -550 -22 -38 -53 -95 -70 -125 -16 -30 -38 -67
-49 -82 -10 -14 -18 -28 -18 -31 0 -10 -132 -221 -152 -243 -10 -11 -18 -23
-18 -26 0 -14 -305 -447 -329 -468 -3 -3 -19 -23 -35 -45 -16 -22 -35 -47 -43
-55 -7 -8 -49 -60 -94 -115 -73 -90 -110 -132 -244 -283 -145 -163 -451 -468
-630 -628 -160 -142 -370 -320 -455 -384 -18 -14 -38 -29 -44 -35 -6 -5 -29
-23 -51 -40 -22 -16 -44 -33 -50 -37 -270 -218 -865 -604 -1300 -842 -145 -80
-694 -356 -708 -356 -3 0 -36 -14 -74 -31 -37 -17 -83 -37 -100 -45 -18 -8
-35 -15 -38 -14 -3 0 -18 -6 -35 -15 -38 -20 -322 -135 -332 -135 -5 0 -27 -9
-51 -19 -146 -67 -766 -264 -1027 -326 -131 -31 -349 -78 -435 -94 -154 -28
-157 -29 -285 -46 -63 -9 -128 -17 -145 -20 -255 -34 -739 -16 -1095 40 -14 2
-70 11 -125 20 -55 8 -134 23 -175 31 -41 9 -84 18 -95 20 -90 18 -248 55
-255 59 -3 2 -18 6 -31 8 -100 19 -453 129 -659 207 -128 49 -376 152 -420
176 -14 7 -84 42 -157 78 -184 90 -440 239 -595 346 -66 45 -243 173 -248 179
-3 3 -27 24 -55 46 -215 170 -509 460 -650 641 -16 21 -41 52 -55 69 -121 144
-342 493 -430 680 -18 39 -38 73 -44 77 -6 4 -8 8 -3 8 4 0 -4 21 -17 48 -43
83 -186 459 -200 527 -1 6 -10 37 -20 70 -10 33 -20 67 -22 75 -21 84 -46 190
-50 210 -2 14 -7 39 -11 55 -11 48 -13 58 -17 90 -3 17 -10 54 -16 84 -5 30
-13 79 -16 110 -3 31 -7 63 -9 71 -2 8 -7 42 -10 75 -3 33 -8 74 -10 90 -6 38
-17 217 -19 316 -2 41 -6 80 -9 86 -4 7 -4 14 1 16 4 3 6 23 5 44 -5 67 -4
143 2 153 3 6 1 10 -5 10 -6 0 -8 5 -5 10 4 6 8 59 10 118 7 179 25 434 40
542 3 19 7 59 11 88 3 29 7 63 10 75 2 12 6 42 10 67 3 25 17 110 31 190 14
80 27 156 29 170 2 14 10 59 19 100 9 41 18 84 20 95 3 11 10 41 16 67 6 26 7
52 3 59 -4 7 -3 9 3 6 8 -5 37 102 38 143 1 8 4 21 8 27 5 7 10 21 12 30 5 27
52 204 64 241 5 18 10 35 10 37 1 3 2 7 2 10 1 3 2 8 3 13 1 4 10 34 20 67 10
33 20 67 21 75 2 8 10 34 19 58 8 23 15 44 16 47 0 3 0 6 1 8 0 1 2 9 4 17 2
8 17 54 33 102 l29 87 -20 33 c-11 18 -23 35 -28 36 -5 2 -9 8 -9 13 0 6 -25
49 -57 97 -31 48 -82 128 -114 177 -32 50 -62 95 -66 101 -4 5 -12 18 -18 27
-5 10 -89 139 -185 288 -96 148 -179 277 -185 286 -5 9 -40 63 -77 120 -38 56
-68 107 -68 112 0 5 -3 11 -7 13 -10 4 -53 65 -53 74 0 4 -10 21 -23 38 -13
17 -54 81 -92 141 -38 61 -72 112 -75 115 -8 7 -192 295 -205 321 -5 10 -13
19 -17 19 -5 0 -8 7 -8 15 0 8 -4 15 -10 15 -5 0 -10 4 -10 10 0 7 -118 195
-190 300 -49 73 -182 278 -187 290 -4 8 -49 80 -101 160 -52 80 -109 168 -127
195 -18 28 -60 92 -94 144 -33 52 -61 98 -61 102 0 5 -4 9 -10 9 -5 0 -10 4
-10 9 0 5 -31 56 -68 113 -37 57 -82 126 -100 153 -17 28 -36 55 -42 62 -5 7
-10 17 -10 23 0 5 -4 10 -10 10 -5 0 -10 4 -10 9 0 6 -39 70 -88 143 -48 73
-89 138 -91 143 -2 6 -18 31 -35 56 -17 25 -68 103 -114 175 -160 248 -213
330 -315 487 -56 87 -134 209 -174 270 -39 62 -77 117 -82 124 -6 7 -11 15
-11 18 0 4 -11 21 -25 39 -14 18 -25 35 -25 38 0 3 -31 52 -68 109 -37 57 -96
147 -129 199 -34 52 -66 100 -72 107 -6 7 -11 15 -11 19 0 4 -16 29 -35 55
-19 27 -35 51 -35 54 0 3 -16 28 -35 55 -19 27 -35 52 -35 55 0 9 -44 69 -52
73 -5 2 -8 8 -8 13 0 8 -25 48 -207 327 -40 62 -73 117 -73 122 0 6 -4 10 -8
10 -4 0 -16 15 -27 33 -10 17 -40 65 -66 105 l-47 74 -78 -99 c-44 -54 -106
-134 -139 -178 -33 -44 -64 -84 -68 -90 -4 -5 -50 -68 -102 -140 -52 -71 -99
-135 -105 -142 -5 -7 -10 -17 -10 -23 0 -5 -4 -10 -10 -10 -5 0 -10 -6 -10
-14 0 -8 -4 -16 -8 -18 -4 -1 -37 -46 -72 -98 -36 -52 -68 -96 -72 -98 -5 -2
-8 -8 -8 -14 0 -9 -37 -66 -132 -205 -15 -23 -28 -46 -28 -51 0 -6 -4 -12 -9
-14 -5 -1 -17 -17 -27 -35 -11 -17 -64 -106 -119 -197 -55 -91 -107 -178 -115
-193 -8 -15 -32 -55 -52 -90 -21 -35 -38 -68 -38 -73 0 -6 -4 -10 -10 -10 -5
0 -10 -6 -10 -13 0 -7 -13 -34 -30 -60 -16 -26 -28 -47 -26 -47 2 0 -15 -34
-39 -76 -92 -160 -305 -599 -415 -854 -34 -80 -71 -163 -81 -186 -10 -23 -43
-106 -74 -185 -187 -474 -342 -951 -446 -1374 -16 -66 -32 -127 -36 -135 -3
-8 -6 -18 -5 -22 1 -3 -7 -39 -17 -80 -11 -40 -24 -98 -30 -128 -12 -57 -17
-84 -26 -122 -3 -13 -8 -36 -10 -53 -3 -16 -8 -37 -10 -45 -2 -8 -7 -31 -10
-50 -18 -101 -25 -137 -29 -160 -3 -13 -8 -42 -11 -65 -3 -22 -8 -47 -10 -55
-5 -20 -15 -86 -21 -139 -2 -24 -6 -47 -9 -51 -2 -3 -7 -31 -10 -61 -3 -30 -8
-66 -10 -80 -3 -14 -8 -52 -11 -85 -4 -32 -8 -66 -9 -74 -7 -45 -19 -167 -18
-182 0 -10 -2 -18 -6 -18 -3 0 -6 -24 -7 -53 0 -28 -4 -79 -7 -112 -3 -33 -9
-105 -13 -160 -3 -55 -11 -106 -18 -114 -8 -11 -8 -13 1 -8 8 5 10 -5 8 -35
-21 -242 -21 -998 0 -1268 2 -25 6 -90 10 -145 3 -55 8 -118 10 -140 2 -22 7
-71 10 -110 4 -38 8 -86 10 -105 5 -53 15 -141 21 -175 2 -16 6 -50 9 -75 2
-25 6 -61 9 -80 9 -63 17 -124 21 -155 4 -37 14 -95 20 -115 2 -8 6 -35 9 -60
3 -25 8 -55 10 -66 2 -12 7 -37 10 -55 9 -56 44 -242 50 -269 8 -34 15 -68 22
-110 4 -19 9 -44 11 -55 7 -32 23 -98 28 -120 3 -11 7 -30 9 -43 3 -13 7 -31
10 -40 3 -9 8 -28 10 -42 7 -31 25 -108 31 -135 3 -11 24 -87 46 -170 23 -82
42 -160 43 -172 0 -13 4 -23 7 -23 4 0 23 -62 35 -115 13 -59 188 -584 254
-760 46 -123 144 -374 164 -420 7 -16 18 -41 24 -55 11 -27 33 -80 56 -132 8
-18 25 -58 39 -88 14 -30 35 -77 47 -105 92 -207 343 -707 372 -743 7 -8 12
-18 12 -21 -2 -9 8 -35 16 -41 4 -3 22 -34 42 -70 85 -158 122 -224 156 -275
6 -11 18 -31 24 -45 7 -14 15 -27 19 -30 3 -3 14 -18 23 -35 9 -16 27 -46 39
-66 12 -19 35 -57 51 -85 50 -83 352 -538 426 -642 39 -53 77 -106 85 -117 31
-44 230 -310 235 -315 3 -3 21 -25 40 -50 19 -25 39 -48 45 -52 5 -4 7 -8 4
-8 -3 0 6 -15 22 -32 25 -30 208 -251 280 -340 17 -20 42 -49 57 -65 15 -16
56 -62 92 -103 69 -78 134 -150 240 -265 80 -86 478 -485 580 -580 96 -90 268
-244 349 -315 36 -30 69 -60 75 -65 6 -6 25 -21 41 -34 17 -12 46 -37 65 -55
71 -64 513 -412 606 -476 12 -8 77 -55 145 -104 184 -133 573 -392 684 -456
54 -32 150 -89 161 -97 22 -17 50 -33 70 -42 18 -8 129 -72 174 -101 8 -5 29
-16 45 -24 17 -9 75 -40 130 -71 259 -144 743 -376 1045 -501 85 -36 164 -68
175 -73 20 -9 162 -64 315 -121 85 -32 522 -179 550 -185 14 -3 256 -73 325
-94 67 -21 499 -126 596 -145 8 -2 25 -6 39 -9 14 -4 36 -9 50 -11 14 -2 72
-13 130 -25 58 -11 119 -23 135 -26 17 -2 55 -9 85 -14 66 -12 84 -15 268 -41
78 -12 150 -23 160 -25 9 -1 53 -6 97 -11 44 -4 82 -8 85 -9 3 -1 46 -5 95 -9
50 -5 99 -10 109 -12 11 -2 60 -6 110 -9 50 -4 107 -8 126 -10 110 -13 353
-19 720 -20 423 0 560 5 860 31 36 3 90 7 120 9 30 3 75 7 100 10 59 7 114 14
172 20 26 3 62 7 80 10 18 2 69 9 113 15 98 14 125 18 195 30 30 5 73 12 95
15 36 6 181 31 230 41 11 2 31 6 45 9 33 6 44 9 190 39 69 15 190 43 270 62
80 20 154 37 164 39 11 3 116 32 235 66 436 123 928 298 1351 479 202 87 261
113 490 222 63 30 118 54 121 54 3 -1 12 4 20 11 8 6 76 43 152 82 77 39 164
85 195 103 180 98 265 146 329 185 40 23 77 43 83 43 5 0 10 5 10 10 0 6 4 10
10 10 12 0 212 122 207 126 -2 2 -43 -12 -93 -32 -121 -48 -604 -217 -654
-229 -8 -2 -66 -20 -129 -40 -63 -20 -122 -39 -130 -41 -9 -2 -47 -13 -86 -24
-74 -23 -350 -99 -375 -105 -8 -2 -71 -17 -140 -35 -69 -17 -154 -38 -190 -45
-36 -8 -105 -24 -155 -35 -49 -11 -101 -23 -115 -25 -14 -3 -36 -7 -50 -10
-14 -3 -47 -9 -75 -15 -27 -5 -61 -12 -75 -15 -25 -5 -122 -23 -170 -31 -112
-20 -140 -24 -175 -29 -22 -3 -62 -10 -90 -15 -27 -5 -72 -12 -100 -15 -27 -3
-77 -10 -110 -15 -78 -12 -118 -17 -240 -30 -55 -6 -111 -13 -125 -15 -37 -6
-153 -16 -335 -30 -49 -4 -110 -8 -135 -10 -318 -27 -1186 -26 -1525 0 -27 2
-87 7 -133 10 -46 3 -98 7 -115 10 -18 2 -64 6 -102 10 -39 3 -81 7 -95 9 -14
3 -59 7 -100 11 -41 3 -84 8 -95 10 -11 2 -42 7 -70 10 -27 4 -63 8 -80 11
-193 25 -544 86 -750 130 -11 2 -36 7 -55 10 -19 3 -57 12 -85 19 -27 7 -63
16 -80 18 -16 3 -113 26 -215 52 -102 26 -189 48 -195 49 -52 13 -158 44 -370
107 -16 5 -34 9 -40 11 -47 9 -658 222 -740 258 -11 4 -63 25 -115 46 -52 20
-113 45 -135 54 -22 10 -103 45 -180 78 -180 78 -300 133 -510 238 -199 99
-450 232 -530 281 -11 7 -27 15 -35 19 -8 4 -59 34 -113 66 -55 32 -101 58
-103 58 -3 0 -17 8 -32 19 -15 10 -83 54 -152 96 -122 76 -415 270 -515 341
-165 118 -251 179 -255 184 -3 3 -40 32 -83 64 -82 61 -274 212 -318 249 -14
12 -50 42 -80 67 -530 443 -1015 928 -1454 1455 -142 170 -188 228 -343 435
-48 63 -90 120 -95 125 -16 20 -154 216 -222 317 -135 199 -380 590 -415 663
-6 11 -14 27 -20 35 -37 58 -215 384 -252 465 -10 22 -23 47 -28 55 -18 30
-138 281 -187 390 -12 25 -35 75 -52 113 -17 37 -31 70 -31 73 0 3 -9 26 -21
52 -23 54 -35 82 -48 115 -5 12 -16 38 -24 57 -8 19 -27 69 -42 110 -16 41
-32 79 -37 85 -4 5 -8 15 -8 23 0 8 -6 28 -14 45 -8 18 -21 52 -29 77 -9 25
-36 106 -62 180 -44 125 -112 335 -120 370 -2 8 -13 47 -25 85 -12 39 -23 79
-25 89 -3 11 -11 40 -19 65 -12 37 -77 288 -91 351 -57 251 -131 636 -151 780
-3 25 -8 54 -10 65 -2 11 -6 40 -9 65 -3 25 -8 59 -10 75 -10 64 -15 102 -20
150 -3 28 -7 68 -9 90 -3 22 -8 69 -11 105 -3 36 -8 83 -11 105 -6 57 -16 216
-29 470 -15 302 1 944 30 1225 2 19 7 64 10 100 3 36 8 81 11 101 2 20 6 56 9
80 5 52 16 136 21 163 2 10 6 42 8 70 3 28 10 74 15 101 5 28 12 70 15 95 4
25 11 65 16 90 10 49 17 87 34 190 4 22 15 75 31 150 3 14 8 39 11 55 3 17 11
55 19 85 8 30 16 66 19 80 9 44 13 62 51 209 21 79 38 149 40 155 1 6 5 18 8
26 4 8 11 33 16 55 16 69 60 213 124 405 33 102 62 187 62 190 1 3 6 16 12 30
6 14 25 68 43 120 18 52 36 100 41 106 5 6 10 19 12 30 2 10 9 30 14 44 6 14
21 50 33 80 37 93 120 292 145 345 12 28 55 121 95 207 40 87 76 156 80 153 4
-2 20 -23 36 -47 16 -24 33 -47 37 -53 5 -5 90 -126 190 -267 100 -142 245
-346 322 -454 77 -109 142 -201 144 -206 1 -5 14 -21 27 -35 13 -14 24 -32 24
-39 0 -7 4 -14 8 -16 7 -2 107 -140 192 -265 8 -11 42 -59 75 -105 33 -45 69
-96 81 -113 92 -132 625 -882 632 -891 5 -6 21 -28 35 -50 35 -52 293 -416
306 -431 6 -7 11 -15 11 -17 0 -3 6 -14 14 -23 43 -52 86 -114 86 -123 0 -6 5
-10 10 -10 6 0 10 -6 10 -14 0 -8 3 -16 8 -18 4 -1 31 -36 60 -76 37 -51 51
-79 47 -93 -4 -10 -9 -31 -11 -46 -3 -15 -14 -63 -24 -108 -19 -83 -48 -222
-56 -265 -2 -14 -9 -47 -14 -75 -5 -27 -12 -61 -14 -75 -3 -14 -10 -50 -15
-80 -6 -30 -13 -70 -16 -90 -3 -19 -7 -46 -10 -60 -2 -14 -7 -43 -10 -65 -3
-22 -7 -49 -9 -60 -10 -60 -17 -104 -20 -140 -2 -22 -7 -51 -10 -65 -3 -14 -8
-47 -11 -75 -3 -27 -7 -68 -10 -90 -2 -22 -7 -65 -11 -95 -3 -30 -7 -68 -9
-85 -2 -16 -7 -68 -10 -115 -3 -47 -8 -101 -10 -120 -4 -41 -16 -244 -21 -345
-7 -172 -2 -845 7 -845 3 0 5 -10 5 -22 1 -41 14 -232 19 -268 2 -19 7 -62 10
-95 4 -33 8 -71 10 -85 1 -14 6 -50 9 -80 4 -30 9 -64 11 -75 3 -11 7 -37 10
-57 3 -21 7 -55 10 -75 3 -21 10 -58 15 -83 5 -25 11 -58 14 -75 5 -33 33
-179 41 -210 2 -11 11 -50 20 -87 18 -84 97 -372 125 -458 12 -36 23 -72 25
-80 4 -15 42 -121 84 -235 12 -33 24 -64 25 -70 4 -15 16 -44 47 -113 15 -34
28 -65 29 -67 8 -41 155 -343 245 -506 25 -45 45 -83 45 -84 0 -6 136 -224
181 -292 27 -40 49 -76 49 -81 0 -6 7 -13 16 -16 8 -3 13 -10 10 -15 -4 -5 -3
-11 2 -13 4 -1 32 -37 62 -78 30 -41 74 -100 97 -130 24 -30 47 -59 51 -65 16
-21 87 -110 92 -115 3 -3 34 -39 70 -80 36 -41 73 -82 82 -91 10 -9 18 -18 18
-21 0 -13 310 -315 428 -418 35 -30 71 -62 80 -71 28 -26 250 -200 347 -270
154 -112 449 -303 545 -352 8 -4 56 -30 105 -57 113 -63 409 -209 495 -245 36
-14 79 -33 97 -41 197 -90 635 -240 913 -313 41 -11 100 -26 132 -35 31 -8 67
-17 80 -20 12 -2 55 -12 93 -21 39 -9 81 -19 95 -21 21 -4 59 -12 192 -39 9
-2 38 -7 65 -10 26 -4 64 -11 83 -15 19 -5 58 -12 85 -15 28 -3 57 -7 65 -10
8 -2 36 -6 62 -9 27 -3 67 -8 90 -11 24 -3 59 -8 78 -10 19 -2 60 -7 90 -10
30 -4 73 -8 95 -10 22 -3 78 -7 125 -11 47 -3 99 -7 115 -9 197 -23 1016 -23
1235 0 19 2 71 6 115 9 126 10 290 26 408 41 109 14 123 16 217 30 123 18 140
21 335 56 1107 199 2246 617 3209 1177 49 29 90 52 92 52 13 0 545 342 620
399 12 9 32 23 44 31 54 37 175 125 180 130 3 3 21 17 40 30 38 27 293 224
325 251 11 10 85 73 165 141 80 67 150 127 156 133 6 5 51 46 100 90 98 88
474 462 569 566 156 170 183 201 319 364 37 44 75 89 85 100 64 73 301 391
415 555 47 69 89 130 93 135 32 42 123 187 123 195 0 5 4 10 9 10 5 0 11 8 15
18 3 9 24 44 46 77 22 33 43 67 47 75 4 8 29 50 55 92 26 43 48 79 48 82 0 2
25 48 56 102 119 209 301 570 383 759 30 69 35 80 70 158 17 38 31 71 31 74 0
3 6 19 14 36 81 178 336 898 360 1018 2 8 6 22 10 31 4 9 5 21 2 27 -3 5 -3
11 2 13 6 2 63 192 77 258 2 8 12 51 24 95 11 44 22 91 25 105 3 14 7 34 10
45 2 11 12 52 21 90 9 39 19 79 21 90 7 36 12 59 32 160 12 55 23 115 26 133
11 60 17 97 22 120 16 82 30 170 38 244 2 21 7 41 9 45 3 4 8 39 12 76 3 37 8
76 10 86 3 18 15 106 20 151 2 14 6 50 9 80 7 62 13 119 21 200 3 30 8 78 10
105 3 28 7 84 10 125 2 41 5 75 6 75 3 0 18 297 25 470 5 139 5 806 -1 900 -2
39 -6 135 -10 215 -4 80 -8 165 -10 190 -6 93 -17 236 -20 270 -2 19 -6 67 -9
105 -8 80 -16 166 -20 210 -2 17 -6 59 -10 95 -10 97 -16 118 -34 125 -22 9
-266 96 -357 128 -89 31 -712 255 -870 312 -133 48 -854 306 -1090 390 -82 29
-265 94 -405 145 -140 50 -259 93 -265 94 -5 2 -17 6 -25 9 -8 4 -42 16 -75
27 -33 12 -67 24 -75 27 -8 4 -17 7 -20 7 -3 1 -25 9 -50 18 -25 9 -101 37
-170 62 -512 182 -706 251 -780 277 -47 17 -101 37 -120 44 -19 8 -136 50
-260 94 -124 44 -277 98 -340 121 -63 23 -135 48 -160 56 -25 8 -54 19 -65 24
-18 8 -299 109 -940 337 -355 126 -489 174 -510 183 -11 5 -40 16 -65 24 -25
8 -63 21 -85 30 -22 8 -119 42 -215 76 -96 34 -184 65 -195 70 -11 5 -200 73
-420 150 -220 78 -409 145 -420 150 -21 9 -36 14 -375 135 -118 42 -240 85
-270 96 -30 11 -62 22 -70 26 -8 3 -19 7 -25 9 -5 1 -30 10 -55 19 -46 17
-224 81 -460 165 -432 153 -711 253 -755 270 -27 10 -144 52 -260 94 -115 41
-235 83 -265 94 -30 11 -120 43 -200 71 -80 28 -153 55 -162 61 -10 5 -25 10
-33 10 -8 0 -23 4 -33 10 -9 5 -120 46 -247 91 -513 181 -571 201 -590 209
-11 5 -39 15 -63 24 -43 16 -43 16 -31 -5z"/>
</g>
</svg>
