<svg xmlns="http://www.w3.org/2000/svg" version="1.1" xmlns:xlink="http://www.w3.org/1999/xlink" width="70" height="70" x="0" y="0" viewBox="0 0 134 134" style="enable-background:new 0 0 512 512" xml:space="preserve" class=""><g><path fill="#ffffff" d="M131 66.99c0 35.36-28.66 64.01-64.01 64.01S3 102.35 3 66.99C3 31.65 31.65 3 66.99 3S131 31.65 131 66.99z" opacity="1" data-original="#eeecde" class=""></path><path fill="#ffffff" d="M118.92 118.46H16.56c-.28 0-.5-.22-.5-.5s.22-.5.5-.5h102.36c.28 0 .5.22.5.5s-.22.5-.5.5zM11.83 118.46H3.5c-.28 0-.5-.22-.5-.5s.22-.5.5-.5h8.33c.28 0 .5.22.5.5s-.23.5-.5.5zM130.5 118.46h-7.44c-.28 0-.5-.22-.5-.5s.22-.5.5-.5h7.44c.28 0 .5.22.5.5s-.22.5-.5.5z" opacity="1" data-original="#191d26" class=""></path><path fill="#000000" d="m23.37 40.05 26.11 26.11c2.11 2.11 5.54 2.12 7.65 0a5.38 5.38 0 0 0 1.58-3.83 5.453 5.453 0 0 0-1.59-3.82L31.02 32.4zm28.25 23.71c-.86-.86-.86-2.24 0-3.09.86-.86 2.25-.86 3.1-.01.86.86.86 2.25 0 3.11-.85.85-2.24.85-3.1-.01z" opacity="1" data-original="#899abf" class=""></path><path fill="#ffffff" d="M53.3 68.24c-1.58 0-3.06-.61-4.18-1.73l-26.1-26.1c-.2-.2-.2-.51 0-.71l7.65-7.65c.19-.19.52-.19.71 0l26.11 26.11c1.12 1.12 1.73 2.6 1.73 4.18s-.61 3.06-1.73 4.18a5.934 5.934 0 0 1-4.19 1.72zM24.08 40.05 49.83 65.8c1.91 1.91 5.03 1.92 6.94 0 .93-.93 1.44-2.16 1.44-3.47s-.51-2.54-1.44-3.47L31.02 33.11z" opacity="1" data-original="#191d26" class=""></path><path fill="#000000" d="m7.88 22.55 12.31 12.31L32.3 22.75c2.36 5.02 1.48 11.18-2.67 15.33-5.29 5.29-13.87 5.29-19.16 0-4.21-4.2-5.06-10.47-2.59-15.53z" opacity="1" data-original="#899abf" class=""></path><path fill="#000000" d="M28.33 20.04c1.15 1.15 2.04 2.44 2.69 3.83l-5.9 5.9-12.31-12.31c5.06-2.47 11.33-1.62 15.52 2.58z" opacity="1" data-original="#899abf" class=""></path><path fill="#ffffff" d="M20.04 42.54c-3.6 0-7.2-1.37-9.93-4.11a14.054 14.054 0 0 1-2.68-16.1c.07-.15.21-.25.37-.27.16-.03.32.02.44.14l11.95 11.95 11.76-11.76c.12-.12.28-.17.44-.14s.3.13.37.28c2.51 5.34 1.39 11.73-2.77 15.9a14.07 14.07 0 0 1-9.95 4.11zM8.03 23.41a13.052 13.052 0 0 0 2.78 14.31c5.09 5.09 13.37 5.09 18.45 0 3.7-3.7 4.81-9.29 2.86-14.11L20.52 35.2c-.2.2-.51.2-.71 0z" opacity="1" data-original="#191d26" class=""></path><path fill="#ffffff" d="M25.12 30.27a.47.47 0 0 1-.35-.15L12.45 17.81a.506.506 0 0 1 .13-.81c5.4-2.63 11.87-1.56 16.1 2.68 1.17 1.17 2.11 2.5 2.79 3.97.09.19.05.42-.1.56l-5.9 5.9c-.1.11-.23.16-.35.16zM13.67 17.62l11.45 11.45 5.3-5.3c-.62-1.24-1.43-2.37-2.44-3.37-3.76-3.77-9.43-4.84-14.31-2.78z" opacity="1" data-original="#191d26" class=""></path><path fill="#000000" d="m23.83 38.2 5.33-5.33a.996.996 0 0 0 0-1.41l-.28-.28a.996.996 0 0 0-1.41 0l-5.33 5.33a.996.996 0 0 0 0 1.41l.28.28c.39.39 1.02.39 1.41 0z" opacity="1" data-original="#434c6d" class=""></path><path fill="#ffffff" d="M23.12 38.99c-.38 0-.77-.15-1.06-.44l-.28-.28c-.58-.58-.58-1.54 0-2.12l5.34-5.33c.56-.57 1.55-.57 2.12 0l.28.28a1.499 1.499 0 0 1 0 2.12l-5.33 5.33c-.3.29-.68.44-1.07.44zm5.05-7.62a.47.47 0 0 0-.35.15l-5.34 5.33c-.19.19-.19.51 0 .71l.28.28c.19.19.51.19.71 0l5.33-5.33c.09-.09.15-.22.15-.35s-.05-.26-.15-.35l-.28-.28a.431.431 0 0 0-.35-.16zM48.63 58.16a.47.47 0 0 1-.35-.15L31.74 41.48c-.2-.2-.2-.51 0-.71s.51-.2.71 0L48.98 57.3c.2.2.2.51 0 .71-.1.1-.23.15-.35.15zM53.18 64.9c-.69 0-1.38-.26-1.91-.79-.51-.51-.79-1.18-.79-1.9s.28-1.39.79-1.9c1.05-1.05 2.76-1.06 3.81-.01s1.05 2.77 0 3.82c-.53.52-1.21.78-1.9.78zm0-4.38c-.44 0-.87.17-1.21.5-.32.32-.5.74-.5 1.19s.18.87.5 1.19c.66.66 1.74.67 2.4.01s.66-1.74 0-2.4c-.33-.33-.76-.49-1.19-.49z" opacity="1" data-original="#191d26" class=""></path><path fill="#000000" d="M58.54 35.91 31.15 63.3a3.965 3.965 0 0 1-5.61 0 3.965 3.965 0 0 1 0-5.61L52.93 30.3z" opacity="1" data-original="#eeaf4b" class=""></path><path fill="#ffffff" d="M28.35 64.96c-1.19 0-2.31-.46-3.16-1.31-.84-.84-1.31-1.97-1.31-3.16s.46-2.32 1.31-3.16l27.39-27.39c.19-.19.52-.19.71 0l5.61 5.61c.09.09.15.22.15.35s-.05.26-.15.35l-27.4 27.4c-.84.85-1.96 1.31-3.15 1.31zM52.93 31 25.89 58.04c-.66.65-1.02 1.53-1.02 2.45 0 .93.36 1.8 1.02 2.45 1.31 1.31 3.59 1.31 4.9 0L57.83 35.9z" opacity="1" data-original="#191d26" class=""></path><path fill="#000000" d="M65.99 32.11 57.9 40.2a3.458 3.458 0 0 1-4.89 0l-4.81-4.81c-.99-.99-1.33-2.5-.74-3.77 1.46-3.14.44-7.53-2.77-10.74-3.61-3.61-8.72-4.46-11.86-2.11-.41.31-.99.25-1.36-.11-.44-.44-.4-1.15.07-1.57 3.46-3.06 7.81-4.58 12.14-4.58 4.69 0 9.4 1.79 12.98 5.37l9.33 9.33a3.47 3.47 0 0 1 0 4.9z" opacity="1" data-original="#434c6d" class=""></path><path fill="#000000" d="m57.698 40.4 8.484-8.484 2.595 2.594-8.484 8.484zM72.33 36.16 61.95 46.54c-.72.72-1.88.72-2.6 0-.72-.72-.72-1.88 0-2.6l10.38-10.38c.72-.72 1.88-.72 2.6 0 .72.72.72 1.88 0 2.6z" opacity="1" data-original="#434c6d" class=""></path><path fill="#ffffff" d="M55.46 41.71c-1.01 0-2.03-.39-2.8-1.16l-4.81-4.81c-1.17-1.17-1.51-2.91-.84-4.33 1.4-3.01.31-7.2-2.67-10.17-3.41-3.41-8.22-4.29-11.2-2.06-.6.45-1.47.38-2.01-.16a1.5 1.5 0 0 1-.45-1.15c.01-.44.21-.86.54-1.15 3.44-3.04 7.87-4.71 12.47-4.71 5.04 0 9.77 1.96 13.33 5.52l9.33 9.33a3.96 3.96 0 0 1 0 5.59l-8.09 8.09c-.78.79-1.79 1.17-2.8 1.17zM37.03 16.96c2.72 0 5.68 1.24 8.01 3.57 3.27 3.27 4.44 7.91 2.87 11.3-.49 1.04-.23 2.33.64 3.2l4.81 4.81a2.963 2.963 0 0 0 4.18 0l8.09-8.09a2.963 2.963 0 0 0 0-4.18l-9.33-9.33a17.754 17.754 0 0 0-12.63-5.23c-4.36 0-8.55 1.58-11.81 4.46-.13.11-.2.27-.21.43a.549.549 0 0 0 .87.47c1.29-.95 2.86-1.41 4.51-1.41z" opacity="1" data-original="#191d26" class=""></path><path fill="#ffffff" d="M60.3 43.5a.47.47 0 0 1-.35-.15l-2.6-2.6c-.2-.2-.2-.51 0-.71l8.49-8.49c.2-.2.51-.2.71 0l2.6 2.6c.09.09.15.22.15.35s-.05.26-.15.35l-8.49 8.49a.48.48 0 0 1-.36.16zm-1.89-3.1 1.89 1.89 7.78-7.78-1.89-1.89z" opacity="1" data-original="#191d26" class=""></path><path fill="#ffffff" d="M60.65 47.58c-.6 0-1.2-.23-1.65-.68-.91-.91-.91-2.39 0-3.31l10.38-10.38c.91-.91 2.39-.91 3.3 0s.91 2.39 0 3.3L62.3 46.9c-.45.45-1.05.68-1.65.68zm10.38-14.05c-.34 0-.68.13-.95.39L59.71 44.3c-.52.52-.52 1.37 0 1.89s1.37.52 1.89 0l10.38-10.38c.52-.52.52-1.37 0-1.89-.26-.26-.6-.39-.95-.39z" opacity="1" data-original="#191d26" class=""></path><path fill="#000000" d="M29.42 112.88h85.94v5.08H29.42z" opacity="1" data-original="#434c6d" class=""></path><path fill="#ffffff" d="M115.36 118.46H29.42c-.28 0-.5-.22-.5-.5v-5.08c0-.28.22-.5.5-.5h85.94c.28 0 .5.22.5.5v5.08c0 .28-.23.5-.5.5zm-85.44-1h84.94v-4.08H29.92z" opacity="1" data-original="#191d26" class=""></path><path fill="#000000" d="M34.33 60.53h76.11v52.35H34.33z" opacity="1" data-original="#fbc592" class=""></path><path fill="#000000" d="m115.63 60.53-5.19-13.61H34.33l-5.19 13.61z" opacity="1" data-original="#e86060" class=""></path><path fill="#ffffff" d="M115.63 61.03H29.14c-.16 0-.32-.08-.41-.22s-.11-.31-.06-.46l5.19-13.61c.07-.19.26-.32.47-.32h76.11c.21 0 .39.13.47.32l5.19 13.61c.06.15.04.33-.06.46s-.25.22-.41.22zm-85.76-1h85.03l-4.81-12.61H34.68z" opacity="1" data-original="#191d26" class=""></path><path fill="#ffffff" d="M110.44 113.38H34.33c-.28 0-.5-.22-.5-.5V60.53c0-.28.22-.5.5-.5h76.11c.28 0 .5.22.5.5v52.35c0 .28-.22.5-.5.5zm-75.61-1h75.11V61.03H34.83z" opacity="1" data-original="#191d26" class=""></path><path fill="#000000" d="M99.52 51.92v60.96H69.9V51.92l14.81-10z" opacity="1" data-original="#ffdcc0" class=""></path><path fill="#ffffff" d="M99.52 113.38H69.9c-.28 0-.5-.22-.5-.5V51.92c0-.17.08-.32.22-.41l14.81-10c.17-.11.39-.11.56 0l14.81 10c.14.09.22.25.22.41v60.97a.5.5 0 0 1-.5.49zm-29.12-1h28.61v-60.2L84.7 42.52l-14.3 9.66z" opacity="1" data-original="#191d26" class=""></path><path fill="#000000" d="m102.19 49.63-17.48-11.8-17.48 11.8v4.09l17.48-11.8 17.48 11.8z" opacity="1" data-original="#ff7e7a" class=""></path><path fill="#ffffff" d="M102.19 54.22c-.1 0-.2-.03-.28-.09l-17.2-11.62-17.2 11.62c-.15.1-.35.11-.51.03a.519.519 0 0 1-.27-.44v-4.09c0-.17.08-.32.22-.41l17.48-11.81c.17-.11.39-.11.56 0l17.48 11.81c.14.09.22.25.22.41v4.09c0 .19-.1.35-.27.44-.07.04-.15.06-.23.06zm-17.48-12.8c.1 0 .2.03.28.09l16.7 11.28V49.9L84.71 38.43 67.73 49.9v2.88l16.7-11.28a.46.46 0 0 1 .28-.08z" opacity="1" data-original="#191d26" class=""></path><path fill="#000000" d="M76.7 54.57h16.01v22.91H76.7z" opacity="1" data-original="#434c6d" class=""></path><path d="M92.72 54.58v4.22c-6.88 0-12.46 5.58-12.46 12.46v6.23h-3.55V54.58z" opacity="1" fill="#000000" data-original="#00000010" class=""></path><path fill="#000000" d="M78.2 94.25h13.02v18.63H78.2z" opacity="1" data-original="#bf7460" class=""></path><path d="M91.22 94.25v2.72h-4.6c-3.35 0-6.07 2.72-6.07 6.07v9.85H78.2V94.25z" opacity="1" fill="#000000" data-original="#00000010" class=""></path><path fill="#ffffff" d="M91.22 113.38H78.2c-.28 0-.5-.22-.5-.5V94.25c0-.28.22-.5.5-.5h13.02c.28 0 .5.22.5.5v18.63c0 .28-.22.5-.5.5zm-12.52-1h12.02V94.75H78.7zM92.71 77.98H76.7c-.28 0-.5-.22-.5-.5V54.57c0-.28.22-.5.5-.5h16.01c.28 0 .5.22.5.5v22.91c0 .28-.22.5-.5.5zm-15.51-1h15.01V55.07H77.2z" opacity="1" data-original="#191d26" class=""></path><path fill="#000000" d="M67.82 84.13h33.78v3.36H67.82z" opacity="1" data-original="#ff7e7a" class=""></path><path fill="#ffffff" d="M101.6 87.99H67.82c-.28 0-.5-.22-.5-.5v-3.36c0-.28.22-.5.5-.5h33.78c.28 0 .5.22.5.5v3.36c0 .28-.22.5-.5.5zm-33.28-1h32.78v-2.36H68.32zM92.71 61.03H76.7c-.28 0-.5-.22-.5-.5s.22-.5.5-.5h16.01c.28 0 .5.22.5.5s-.22.5-.5.5z" opacity="1" data-original="#191d26" class=""></path><path fill="#ffffff" d="M84.71 77.98c-.28 0-.5-.22-.5-.5V60.53c0-.28.22-.5.5-.5s.5.22.5.5v16.95c0 .28-.22.5-.5.5z" opacity="1" data-original="#191d26" class=""></path><path fill="#000000" d="M41.56 68.92h21.11v13.19H41.56z" opacity="1" data-original="#434c6d" class=""></path><path d="M62.68 68.93v3.43h-8.23c-5.27 0-9.53 4.27-9.53 9.53v.23h-3.35V68.93z" opacity="1" fill="#000000" data-original="#00000010" class=""></path><path fill="#ffffff" d="M62.67 82.62H41.56c-.28 0-.5-.22-.5-.5v-13.2c0-.28.22-.5.5-.5h21.11c.28 0 .5.22.5.5v13.19c0 .28-.22.51-.5.51zm-20.61-1h20.11v-12.2H42.06z" opacity="1" data-original="#191d26" class=""></path><path fill="#ffffff" d="M62.67 72.85H41.56c-.28 0-.5-.22-.5-.5s.22-.5.5-.5h21.11c.28 0 .5.22.5.5s-.22.5-.5.5z" opacity="1" data-original="#191d26" class=""></path><path fill="#ffffff" d="M52.12 82.62c-.28 0-.5-.22-.5-.5v-9.76c0-.28.22-.5.5-.5s.5.22.5.5v9.76c0 .27-.23.5-.5.5z" opacity="1" data-original="#191d26" class=""></path><path fill="#000000" d="M41.56 90.37h21.11v13.19H41.56z" opacity="1" data-original="#434c6d" class=""></path><path d="M62.68 90.38v3.43h-8.23c-5.27 0-9.53 4.27-9.53 9.53v.23h-3.35V90.38z" opacity="1" fill="#000000" data-original="#00000010" class=""></path><path fill="#ffffff" d="M62.67 104.07H41.56c-.28 0-.5-.22-.5-.5v-13.2c0-.28.22-.5.5-.5h21.11c.28 0 .5.22.5.5v13.19c0 .28-.22.51-.5.51zm-20.61-1h20.11v-12.2H42.06z" opacity="1" data-original="#191d26" class=""></path><path fill="#ffffff" d="M62.67 94.3H41.56c-.28 0-.5-.22-.5-.5s.22-.5.5-.5h21.11c.28 0 .5.22.5.5s-.22.5-.5.5z" opacity="1" data-original="#191d26" class=""></path><path fill="#ffffff" d="M52.12 104.07c-.28 0-.5-.22-.5-.5V93.8c0-.28.22-.5.5-.5s.5.22.5.5v9.76c0 .28-.23.51-.5.51z" opacity="1" data-original="#191d26" class=""></path></g></svg>