<svg xmlns="http://www.w3.org/2000/svg" version="1.1" xmlns:xlink="http://www.w3.org/1999/xlink" width="73" height="73" x="0" y="0" viewBox="0 0 512 512" style="enable-background:new 0 0 512 512" xml:space="preserve" class=""><g><path fill="#000000" fill-rule="evenodd" d="M249.094 48.07a165.145 165.145 0 0 1 48.36 20.049l31.424-13.956 37.038 37.036-13.952 31.415a165.189 165.189 0 0 1 20.052 48.373l32.061 12.341v52.377l-32.068 12.344a165.172 165.172 0 0 1-20.049 48.36l13.956 31.425-37.036 37.036-31.415-13.952a165.189 165.189 0 0 1-48.373 20.052l-12.34 32.061h-52.379l-12.344-32.069a165.16 165.16 0 0 1-48.36-20.049L92.245 364.87l-37.038-37.036 13.952-31.415a165.195 165.195 0 0 1-20.052-48.374l-32.061-12.34v-52.378l32.065-12.343a165.143 165.143 0 0 1 20.05-48.364L55.208 91.2l37.036-37.039 31.425 13.957a165.189 165.189 0 0 1 48.361-20.049l12.344-32.068h52.377z" clip-rule="evenodd" opacity="1" data-original="#ffd064" class=""></path><path fill="#000000" fill-rule="evenodd" d="M123.67 350.914 92.245 364.87l-4.864-4.863 29.451-13.08a165.628 165.628 0 0 0 6.838 3.987zM249.094 48.07a165.166 165.166 0 0 1 47.754 19.677c.197.132.398.257.607.372l-8.977 3.987c-14.955-9.208-38.111-19.97-55.197-24.036l-12.344-32.068h15.814zM87.38 59.025l4.864-4.863 31.425 13.957a166.734 166.734 0 0 0-6.837 3.987zm230.547 0 10.95-4.863 37.038 37.036-13.952 31.415a165.189 165.189 0 0 1 20.052 48.373l32.061 12.341v52.377l-32.068 12.344a165.172 165.172 0 0 1-20.049 48.36l13.956 31.425-37.035 37.037-10.951-4.863 32.173-32.174-13.957-31.425a165.145 165.145 0 0 0 20.049-48.36l32.068-12.344v-52.377l-32.061-12.341a165.189 165.189 0 0 0-20.052-48.373l13.952-31.415zm-21.074 292.268a165.168 165.168 0 0 1-47.761 19.677l-12.34 32.061h-15.814l12.34-32.061c17.09-4.067 40.25-14.828 55.209-24.039l8.978 3.987c-.208.115-.412.24-.612.375z" clip-rule="evenodd" opacity="1" data-original="#ffd064" class=""></path><circle cx="210.561" cy="209.516" r="112.508" fill="#000000" fill-rule="evenodd" clip-rule="evenodd" transform="rotate(-45 210.539 209.57)" opacity="1" data-original="#eceff1" class=""></circle><path fill="#000000" fill-rule="evenodd" d="M210.561 97.007c2.659 0 5.295.099 7.907.28-58.445 4.059-104.602 52.751-104.602 112.228s46.156 108.169 104.602 112.228c-2.613.182-5.248.281-7.907.281-62.135 0-112.508-50.373-112.508-112.508 0-62.136 50.372-112.509 112.508-112.509z" clip-rule="evenodd" opacity="1" data-original="#d1d1d6" class=""></path><path fill="#000000" fill-rule="evenodd" d="M406.335 293.035a94.443 94.443 0 0 1 27.652 11.464l17.968-7.98 21.178 21.177-7.978 17.963a94.473 94.473 0 0 1 11.466 27.659l18.332 7.057v29.949l-18.336 7.058a94.416 94.416 0 0 1-11.464 27.652l7.98 17.968-21.177 21.178-17.963-7.978a94.462 94.462 0 0 1-27.659 11.466L399.278 496h-29.949l-7.058-18.336a94.443 94.443 0 0 1-27.652-11.464l-17.968 7.98-21.178-21.177 7.978-17.963a94.467 94.467 0 0 1-11.466-27.66l-18.332-7.056v-29.949l18.335-7.057a94.428 94.428 0 0 1 11.464-27.654l-7.979-17.966 21.177-21.178 17.969 7.981a94.455 94.455 0 0 1 27.652-11.464l7.058-18.336h29.949z" clip-rule="evenodd" opacity="1" data-original="#a79ba7" class=""></path><path fill="#000000" fill-rule="evenodd" d="m334.619 466.198-17.968 7.98-2.781-2.781 16.84-7.479a94.28 94.28 0 0 0 3.909 2.28zm71.716-173.163a94.439 94.439 0 0 1 27.305 11.251c.112.076.228.147.347.213l-5.133 2.28c-8.551-5.265-21.791-11.419-31.561-13.744l-7.058-18.336h9.042zm-92.466 6.264 2.781-2.781 17.969 7.981a94.28 94.28 0 0 0-3.909 2.28zm131.825 0 6.262-2.781 21.178 21.177-7.978 17.963a94.473 94.473 0 0 1 11.466 27.659l18.332 7.057v29.949l-18.336 7.058a94.416 94.416 0 0 1-11.464 27.652l7.98 17.968-21.177 21.178-6.262-2.781 18.396-18.397-7.98-17.968a94.443 94.443 0 0 0 11.464-27.652l18.336-7.058v-29.949l-18.332-7.057a94.435 94.435 0 0 0-11.466-27.659l7.978-17.963zm-12.05 167.116a94.443 94.443 0 0 1-27.31 11.252l-7.056 18.332h-9.043l7.056-18.332c9.772-2.325 23.015-8.478 31.568-13.746l5.134 2.28a4.536 4.536 0 0 0-.349.214z" clip-rule="evenodd" opacity="1" data-original="#837683" class=""></path><ellipse cx="384.303" cy="385.348" fill="#000000" fill-rule="evenodd" clip-rule="evenodd" rx="56.622" ry="56.621" transform="rotate(-80.8 384.23 385.39)" opacity="1" data-original="#eceff1" class=""></ellipse><path fill="#000000" fill-rule="evenodd" d="M384.303 328.727c1.338 0 2.664.05 3.979.141-29.414 2.043-52.642 26.548-52.642 56.48s23.229 54.438 52.642 56.48a57.604 57.604 0 0 1-3.979.141c-31.271 0-56.621-25.351-56.621-56.621-.001-31.271 25.35-56.621 56.621-56.621z" clip-rule="evenodd" opacity="1" data-original="#d1d1d6" class=""></path><circle cx="210.359" cy="208.368" r="75.895" fill="#000000" fill-rule="evenodd" clip-rule="evenodd" transform="rotate(-45 210.337 208.421)" opacity="1" data-original="#8ac9fe" class=""></circle><path fill="#000000" fill-rule="evenodd" d="M210.359 132.473c-1.68 0-3.347.061-5 .168 39.584 2.575 70.895 35.492 70.895 75.727s-31.311 73.151-70.895 75.727c1.654.107 3.32.168 5 .168 41.916 0 75.895-33.98 75.895-75.895 0-41.916-33.979-75.895-75.895-75.895z" clip-rule="evenodd" opacity="1" data-original="#60b7ff" class=""></path><path fill="#000000" fill-rule="evenodd" d="M166.288 199.097c5.207-5.208 13.728-5.208 18.935 0l13.566 13.566 36.706-36.706c5.207-5.207 13.728-5.207 18.935 0 5.208 5.207 5.208 13.728 0 18.935l-45.912 45.912c-6.638 6.638-15.518 3.94-21.405-1.947l-20.825-20.825c-5.207-5.208-5.207-13.728 0-18.935z" clip-rule="evenodd" opacity="1" data-original="#d8ecfe" class=""></path><path fill="#ffffff" fill-rule="evenodd" d="M384.295 430.119c-24.683 0-44.772-20.079-44.772-44.767 0-24.692 20.089-44.772 44.772-44.772 24.688 0 44.781 20.079 44.781 44.772.001 24.688-20.093 44.767-44.781 44.767zm0-105.537c-33.513 0-60.771 27.257-60.771 60.771 0 33.508 27.258 60.771 60.771 60.771 33.508 0 60.78-27.262 60.78-60.771 0-33.514-27.271-60.771-60.78-60.771zm102.657 70.25v-18.959l-13.207-5.093a7.985 7.985 0 0 1-4.914-5.606 86.4 86.4 0 0 0-10.487-25.323 7.978 7.978 0 0 1-.499-7.441l5.738-12.939-13.41-13.41-12.949 5.752a7.993 7.993 0 0 1-7.441-.499 86.196 86.196 0 0 0-25.309-10.492 8.027 8.027 0 0 1-5.611-4.909l-5.079-13.212h-18.973l-5.088 13.212a7.982 7.982 0 0 1-5.611 4.909 85.805 85.805 0 0 0-25.309 10.492 8.013 8.013 0 0 1-7.437.499l-12.954-5.752-13.41 13.41 5.752 12.949a7.977 7.977 0 0 1-.503 7.441 86.31 86.31 0 0 0-10.487 25.314 7.993 7.993 0 0 1-4.909 5.606l-13.212 5.093v18.959l13.212 5.088a8.007 8.007 0 0 1 4.909 5.611 86.389 86.389 0 0 0 10.487 25.318 7.976 7.976 0 0 1 .503 7.441l-5.752 12.939 13.41 13.41 12.954-5.752a8.014 8.014 0 0 1 7.437.504 86.624 86.624 0 0 0 25.309 10.492 7.99 7.99 0 0 1 5.62 4.909L374.811 488h18.973l5.079-13.198a7.984 7.984 0 0 1 5.611-4.909 86.214 86.214 0 0 0 25.318-10.501 8.023 8.023 0 0 1 7.442-.504l12.939 5.752 13.41-13.41-5.747-12.949a8.005 8.005 0 0 1 .499-7.441 86.028 86.028 0 0 0 10.492-25.309 7.993 7.993 0 0 1 4.909-5.611zm-239.721-31.64c14.643-3.483 28.655-9.061 41.722-16.554 1.6-3.925 3.431-7.766 5.512-11.475l-6.312-14.224a7.994 7.994 0 0 1 1.652-8.896l21.181-21.181a8.003 8.003 0 0 1 8.91-1.652l14.21 6.312a100.621 100.621 0 0 1 12.638-5.978 156.97 156.97 0 0 0 17.481-43.341 7.98 7.98 0 0 1 4.909-5.62l26.937-10.374v-41.388l-26.937-10.369a7.966 7.966 0 0 1-4.909-5.611 156.658 156.658 0 0 0-19.082-46.028 8.008 8.008 0 0 1-.499-7.442l11.73-26.401-29.267-29.267-26.41 11.73a7.991 7.991 0 0 1-7.441-.499 156.927 156.927 0 0 0-46.024-19.081 8.008 8.008 0 0 1-5.606-4.909L231.251 24h-41.388l-10.379 26.942a7.968 7.968 0 0 1-5.611 4.909 156.943 156.943 0 0 0-46.019 19.081 7.989 7.989 0 0 1-7.442.499l-26.401-11.73L64.745 92.97l11.72 26.41a7.98 7.98 0 0 1-.503 7.442 156.74 156.74 0 0 0-19.077 46.019 7.972 7.972 0 0 1-4.909 5.611l-26.932 10.369v41.397l26.932 10.365a8.02 8.02 0 0 1 4.909 5.62 156.898 156.898 0 0 0 19.077 46.029 8 8 0 0 1 .503 7.441l-11.72 26.387 29.267 29.272 26.401-11.729a8.006 8.006 0 0 1 7.442.499 156.907 156.907 0 0 0 46.019 19.077 8.018 8.018 0 0 1 5.62 4.914l10.369 26.937h41.388l10.374-26.928a7.97 7.97 0 0 1 5.606-4.91zm250.594-.282-14.502-5.578a102.24 102.24 0 0 0-9.188-22.183l6.307-14.21a7.994 7.994 0 0 0-1.657-8.896l-21.181-21.181a7.989 7.989 0 0 0-8.901-1.652l-14.22 6.312a101.717 101.717 0 0 0-22.16-9.188l-5.592-14.511a7.988 7.988 0 0 0-7.46-5.121h-24.41a168.202 168.202 0 0 0 3.893-12.671l28.189-10.859a8.001 8.001 0 0 0 5.131-7.461v-52.378a8.003 8.003 0 0 0-5.131-7.47l-28.189-10.849a172.795 172.795 0 0 0-17.801-42.946l12.271-27.615a8.022 8.022 0 0 0-1.662-8.91l-37.029-37.034a8.012 8.012 0 0 0-8.91-1.657l-27.629 12.271a173.048 173.048 0 0 0-42.932-17.802l-10.849-28.189a8.006 8.006 0 0 0-7.47-5.13h-52.378a7.984 7.984 0 0 0-7.46 5.13l-10.859 28.189a172.988 172.988 0 0 0-42.931 17.802L95.486 46.852a8 8 0 0 0-8.901 1.657L49.542 85.543a7.993 7.993 0 0 0-1.647 8.91l12.262 27.615a173.207 173.207 0 0 0-17.802 42.946l-28.189 10.849a7.988 7.988 0 0 0-5.121 7.47v52.378a7.977 7.977 0 0 0 5.121 7.461l28.189 10.849a172.636 172.636 0 0 0 17.802 42.95l-12.262 27.62a7.984 7.984 0 0 0 1.647 8.901l37.043 37.038a7.992 7.992 0 0 0 8.901 1.652l27.629-12.271a172.487 172.487 0 0 0 42.941 17.801l10.849 28.199a7.979 7.979 0 0 0 7.46 5.116h52.378a8 8 0 0 0 7.47-5.116l10.849-28.19c3.558-.941 7.089-2.01 10.581-3.172v25.779a7.99 7.99 0 0 0 5.13 7.461l14.497 5.582a102.328 102.328 0 0 0 9.193 22.179l-6.312 14.21a8.004 8.004 0 0 0 1.652 8.901l21.181 21.181a8.009 8.009 0 0 0 8.91 1.647l14.21-6.312a101.943 101.943 0 0 0 22.17 9.193l5.577 14.511a8.014 8.014 0 0 0 7.47 5.116h29.95a7.99 7.99 0 0 0 7.46-5.116l5.583-14.502a102.408 102.408 0 0 0 22.179-9.202l14.21 6.312a7.984 7.984 0 0 0 8.901-1.647l21.181-21.181a8.005 8.005 0 0 0 1.657-8.901l-6.321-14.219a101.953 101.953 0 0 0 9.192-22.17l14.511-5.582a8.013 8.013 0 0 0 5.131-7.47v-29.94a8.01 8.01 0 0 0-5.13-7.469zM248.766 189.24l-45.911 45.911c-3.779 3.78-8.679-.541-10.092-1.949l-20.818-20.823c-2.071-2.066-2.071-5.559 0-7.62.998-1.007 2.358-1.568 3.808-1.568s2.8.56 3.813 1.558l13.56 13.57c1.497 1.501 3.54 2.344 5.658 2.344s4.161-.843 5.663-2.344l36.699-36.709c1.012-.998 2.358-1.558 3.808-1.558a5.35 5.35 0 0 1 5.38 5.38 5.35 5.35 0 0 1-1.568 3.808zm11.315-18.941c4.034 4.034 6.255 9.4 6.255 15.132 0 5.719-2.222 11.089-6.255 15.119l-45.906 45.911c-4.142 4.128-9.31 6.18-14.671 6.18-6.208 0-12.671-2.739-18.051-8.119l-20.828-20.833c-8.341-8.34-8.341-21.91 0-30.251 4.029-4.029 9.4-6.246 15.118-6.246 5.733 0 11.099 2.217 15.133 6.246l7.908 7.912 31.051-31.051c8.34-8.34 21.91-8.34 30.246 0zm-49.728 105.962c-37.439 0-67.902-30.449-67.902-67.892 0-37.439 30.463-67.897 67.902-67.897 37.443 0 67.892 30.458 67.892 67.897 0 37.443-30.449 67.892-67.892 67.892zm0-151.788c46.259 0 83.891 37.636 83.891 83.896 0 46.264-37.632 83.891-83.891 83.891s-83.9-37.627-83.9-83.891c0-46.26 37.64-83.896 83.9-83.896zm.202 194.22c-60.201 0-109.172-48.97-109.172-109.171s48.97-109.181 109.172-109.181c60.201 0 109.171 48.98 109.171 109.181s-48.97 109.171-109.171 109.171zm125.17-109.171c0 69.017-56.148 125.17-125.17 125.17s-125.17-56.153-125.17-125.17c0-69.022 56.148-125.184 125.17-125.184s125.17 56.162 125.17 125.184z" clip-rule="evenodd" opacity="1" data-original="#242222" class=""></path></g></svg>